{"title":"[ENG][AVI] Star Wars Episode IV - A New Hope","uid":6636086,"size":1742778790,"categoryP":"video","categoryS":"movies","magnet":"?xt=urn:btih:cdff09b49ceaf4e23bb2c69762f47f3ba00b3b19&amp;dn=%5BENG%5D%5BAVI%5D+Star+Wars+Episode+IV+-+A+New+Hope&amp;tr=udp%3A%2F%2Ftracker.openbittorrent.com%3A80&amp;tr=udp%3A%2F%2Fopen.demonii.com%3A1337&amp;tr=udp%3A%2F%2Ftracker.coppersurfer.tk%3A6969&amp;tr=udp%3A%2F%2Fexodus.desync.com%3A6969","seeders":0,"leechers":1,"uploader":"NomNess","files":1,"time":1314563441,"description":"Format profile                   : OpenDML\nFile size                        : 1.62 GiB\nDuration                         : 1h 59mn\nOverall bit rate                 : 1 943 Kbps\n\nVideo\nID                               : 0\nFormat                           : MPEG-4 Visual\nCodec ID                         : DX50\nCodec ID/Hint                    : DivX 5\nDuration                         : 1h 59mn\nBit rate                         : 67.8 Kbps\nWidth                            : 720 pixels\nHeight                           : 404 pixels\nDisplay aspect ratio             : 16:9\nFrame rate                       : 29.970 fps\nColor space                      : YUV\nChroma subsampling               : 4:2:0\nCompression mode                 : Lossy\nBits/(Pixel*Frame)               : 0.008\nStream size                      : 58.0 MiB (3%)\n\nAudio\nID                               : 1\nFormat                           : MPEG Audio\nCodec ID                         : 55\nCodec ID/Hint                    : MP3\nDuration                         : 1h 59mn\nBit rate                         : 128 Kbps\nChannel(s)                       : 2 channels\nSampling rate                    : 48.0 KHz\nCompression mode                 : Lossy\nStream size                      : 110 MiB (7%)\nAlignment                        : Aligned on interleaves","torrent":{"xt":"urn:btih:cdff09b49ceaf4e23bb2c69762f47f3ba00b3b19","amp;dn":"%5BENG%5D%5BAVI%5D+Star+Wars+Episode+IV+-+A+New+Hope","amp;tr":["udp%3A%2F%2Ftracker.openbittorrent.com%3A80","udp%3A%2F%2Fopen.demonii.com%3A1337","udp%3A%2F%2Ftracker.coppersurfer.tk%3A6969","udp%3A%2F%2Fexodus.desync.com%3A6969"],"infoHash":"cdff09b49ceaf4e23bb2c69762f47f3ba00b3b19","infoHashBuffer":{"type":"Buffer","data":[205,255,9,180,156,234,244,226,59,178,198,151,98,244,127,59,160,11,59,25]},"announce":[],"urlList":[]}}